<svg width="473" height="416" viewBox="0 0 473 416" fill="none" xmlns="http://www.w3.org/2000/svg">
<g opacity="0.5" clip-path="url(#clip0)">
<path d="M469.231 410.051C468.405 411.207 467.57 412.355 466.744 413.494C464.369 415.131 461.551 416.006 458.667 416H14.3332C11.5775 416.002 8.88022 415.205 6.56793 413.705C5.80054 412.692 5.0418 411.671 4.27441 410.65L5.0418 410.228L229.982 285.445C231.978 284.34 234.221 283.759 236.502 283.756C238.783 283.754 241.027 284.329 243.026 285.428L468.472 409.629L469.231 410.051Z" fill="#57B3E4"/>
<path d="M458.667 147.667L263.718 34.9926C255.518 30.2536 246.218 27.7564 236.749 27.7517C227.28 27.747 217.977 30.235 209.773 34.966L14.3333 147.667C10.5335 147.673 6.89094 149.186 4.20408 151.875C1.51722 154.564 0.00537533 158.209 0 162.012V401.655C0.00442717 405.458 1.51596 409.104 4.20303 411.794C6.89009 414.483 10.5333 415.996 14.3333 416H458.667C462.466 415.994 466.108 414.48 468.795 411.791C471.481 409.103 472.994 405.458 473 401.655V162.012C472.995 158.209 471.483 154.564 468.796 151.875C466.109 149.186 462.466 147.673 458.667 147.667ZM471.314 401.655C471.306 405.01 469.971 408.224 467.601 410.596C465.23 412.968 462.018 414.304 458.667 414.312H14.3333C10.981 414.306 7.76766 412.971 5.39718 410.598C3.0267 408.226 1.69231 405.01 1.68627 401.655V162.012C1.69035 158.657 3.02412 155.44 5.39502 153.067C7.76592 150.694 10.9804 149.359 14.3333 149.355L209.773 36.6537C217.977 31.9227 227.28 29.4346 236.749 29.4393C246.218 29.444 255.518 31.9412 263.718 36.6803L458.667 149.355C462.02 149.359 465.234 150.694 467.605 153.067C469.976 155.44 471.31 158.657 471.314 162.012V401.655Z" fill="#3F3D56"/>
<path d="M236.753 283.251C235.284 283.256 233.826 283.012 232.439 282.527L232.184 282.437L232.133 281.87C231.974 281.948 231.813 282.023 231.653 282.094L231.483 282.168L231.313 282.093C230.958 281.937 230.605 281.76 230.265 281.568L75.0392 194.273V16.0325C75.0438 11.8937 76.6887 7.9258 79.6129 4.99926C82.5371 2.07272 86.5018 0.426551 90.6372 0.421906H382.363C386.498 0.426551 390.463 2.07272 393.387 4.99926C396.311 7.9258 397.956 11.8937 397.961 16.0325V194.501L397.746 194.622L243.241 281.569C241.257 282.675 239.024 283.255 236.753 283.251Z" fill="white"/>
<path d="M236.753 283.673C235.237 283.678 233.731 283.425 232.299 282.925L231.789 282.745L231.767 282.504L231.483 282.629L231.144 282.48C230.776 282.318 230.411 282.135 230.058 281.936L74.6177 194.52V16.0325C74.6225 11.7819 76.3118 7.70674 79.315 4.70112C82.3182 1.69549 86.3901 0.00481066 90.6373 0H382.363C386.61 0.00482849 390.682 1.69551 393.685 4.70113C396.688 7.70675 398.378 11.7819 398.382 16.0325V194.748L243.447 281.936C241.401 283.079 239.096 283.677 236.753 283.673ZM233.369 281.499C236.469 282.39 239.795 282.018 242.622 280.465L396.696 193.761V16.0325C396.692 12.2293 395.18 8.58311 392.493 5.89386C389.806 3.20461 386.163 1.69191 382.363 1.68763H90.6373C86.8372 1.69189 83.1939 3.20459 80.5068 5.89384C77.8197 8.5831 76.3082 12.2293 76.304 16.0325V193.532L86.4128 199.214L230.885 280.465C231.081 280.576 231.281 280.68 231.483 280.778C231.686 280.68 231.885 280.576 232.081 280.466L233.217 279.826L233.369 281.499Z" fill="#3F3D56"/>
<path d="M469.265 153.895L408.078 188.322L397.539 194.254L243.034 281.201C241.114 282.273 238.951 282.833 236.753 282.829C235.332 282.834 233.921 282.597 232.579 282.129C232.206 282.01 231.84 281.869 231.483 281.707C231.138 281.555 230.801 281.386 230.472 281.201L85.9999 199.95L75.4607 194.026L3.86156 153.76C3.66688 153.648 3.52407 153.464 3.4641 153.248C3.40414 153.031 3.43186 152.8 3.54127 152.604C3.65097 152.409 3.83333 152.266 4.04829 152.206C4.26325 152.146 4.49325 152.174 4.68782 152.283L75.4607 192.086L85.9999 198.009L231.298 279.724C231.78 279.995 232.281 280.229 232.798 280.425C233.018 280.509 233.246 280.585 233.473 280.652C234.916 281.096 236.434 281.242 237.935 281.082C239.437 280.923 240.89 280.461 242.208 279.724L397.539 192.322L408.078 186.39L468.438 152.426C468.535 152.372 468.641 152.337 468.751 152.324C468.86 152.311 468.972 152.319 469.078 152.349C469.185 152.379 469.284 152.429 469.371 152.498C469.458 152.566 469.531 152.651 469.585 152.747C469.639 152.843 469.674 152.95 469.687 153.059C469.701 153.169 469.692 153.281 469.662 153.387C469.633 153.494 469.582 153.594 469.514 153.681C469.446 153.768 469.361 153.84 469.265 153.895Z" fill="#3F3D56"/>
<path d="M138.338 55.6917H114.73C112.941 55.6917 111.225 54.9805 109.96 53.7145C108.695 52.4485 107.985 50.7315 107.985 48.9412C107.985 47.1508 108.695 45.4338 109.96 44.1678C111.225 42.9019 112.941 42.1907 114.73 42.1907H138.338C140.126 42.1907 141.842 42.9019 143.107 44.1678C144.372 45.4338 145.083 47.1508 145.083 48.9412C145.083 50.7315 144.372 52.4485 143.107 53.7145C141.842 54.9805 140.126 55.6917 138.338 55.6917Z" fill="#57B3E4"/>
<path d="M166.161 78.4746H114.73C112.941 78.4746 111.225 77.7634 109.96 76.4975C108.695 75.2315 107.985 73.5145 107.985 71.7241C107.985 69.9338 108.695 68.2168 109.96 66.9508C111.225 65.6848 112.941 64.9736 114.73 64.9736H166.161C167.95 64.9736 169.666 65.6848 170.931 66.9508C172.196 68.2168 172.906 69.9338 172.906 71.7241C172.906 73.5145 172.196 75.2315 170.931 76.4975C169.666 77.7634 167.95 78.4746 166.161 78.4746Z" fill="#E6E6E6"/>
<path d="M309.853 139.229H163.99C162.201 139.229 160.486 138.518 159.221 137.252C157.956 135.986 157.245 134.269 157.245 132.479C157.245 130.688 157.956 128.971 159.221 127.705C160.486 126.439 162.201 125.728 163.99 125.728H309.853C311.642 125.728 313.357 126.439 314.622 127.705C315.887 128.971 316.598 130.688 316.598 132.479C316.598 134.269 315.887 135.986 314.622 137.252C313.357 138.518 311.642 139.229 309.853 139.229Z" fill="#57B3E4"/>
<path d="M323.343 165.387H149.657C147.868 165.387 146.152 164.676 144.887 163.41C143.622 162.144 142.912 160.427 142.912 158.637C142.912 156.847 143.622 155.13 144.887 153.864C146.152 152.598 147.868 151.886 149.657 151.886H323.343C325.132 151.886 326.848 152.598 328.113 153.864C329.378 155.13 330.088 156.847 330.088 158.637C330.088 160.427 329.378 162.144 328.113 163.41C326.848 164.676 325.132 165.387 323.343 165.387Z" fill="#E6E6E6"/>
<path d="M323.343 190.702H149.657C147.868 190.702 146.152 189.991 144.887 188.725C143.622 187.459 142.912 185.742 142.912 183.951C142.912 182.161 143.622 180.444 144.887 179.178C146.152 177.912 147.868 177.201 149.657 177.201H323.343C325.132 177.201 326.848 177.912 328.113 179.178C329.378 180.444 330.088 182.161 330.088 183.951C330.088 185.742 329.378 187.459 328.113 188.725C326.848 189.991 325.132 190.702 323.343 190.702Z" fill="#E6E6E6"/>
</g>
<defs>
<clipPath id="clip0">
<rect width="473" height="416" fill="white"/>
</clipPath>
</defs>
</svg>
